#N canvas 827 239 527 327 12;
#X obj 275 331 netsend -u -b;
#X msg 383 256 connect localhost 1312;
#X msg 383 288 disconnect;
#X obj 273 171 oscformat oscillator frequency;
#X obj 421 412 netreceive -u -b;
#X obj 421 438 oscparse;
#X obj 348 548 print;
#X msg 282 93 5;
#X obj 354 84 hsl 128 17 0 127 0 0 empty empty empty -2 -8 0 10 #e4e4e4 #4d4d4d #373737 0 1;
#X msg 569 289 disconnect;
#X obj 273 212 list prepend send;
#X obj 287 262 list trim;
#X obj 325 123 list prepend pd;
#X msg 421 386 listen 4202;
#X text 151 397 listening port needs to be different to \; reciving port if you're just using localhost;
#X obj 453 546 mtof;
#X floatatom 470 580 5 0 0 0 - - - 12;
#X obj 421 462 route list;
#X obj 421 486 route stuff;
#X obj 470 619 osc~;
#X obj 404 524 t b f;
#X obj 470 662 *~;
#X obj 536 635 line~ 0;
#X obj 479 744 dac~;
#X msg 604 577 0 50;
#X obj 549 472 bng 25 250 50 0 empty empty empty 17 7 0 10 #e4e4e4 #4d4d4d #373737;
#X msg 528 569 1 100;
#X obj 568 532 del 200;
#X obj 473 707 *~ 0.5;
#X text 55 437 This section that says "route" \; is how we take the different \; sensor messages coming from the \; installation and make them do different \; things in max etc. \; so e.g. rfid could send a specific message \; that says one thing \, teensy could send another \; etc. \; all of this is handled in node;
#X connect 1 0 0 0;
#X connect 2 0 0 0;
#X connect 3 0 10 0;
#X connect 4 0 5 0;
#X connect 5 0 17 0;
#X connect 7 0 3 0;
#X connect 8 0 12 0;
#X connect 9 0 4 0;
#X connect 10 0 11 0;
#X connect 11 0 0 0;
#X connect 12 0 3 0;
#X connect 13 0 4 0;
#X connect 15 0 16 0;
#X connect 16 0 19 0;
#X connect 17 0 18 0;
#X connect 18 0 6 0;
#X connect 18 0 20 0;
#X connect 19 0 21 0;
#X connect 20 0 26 0;
#X connect 20 1 15 0;
#X connect 21 0 28 0;
#X connect 22 0 21 1;
#X connect 24 0 22 0;
#X connect 25 0 27 0;
#X connect 26 0 22 0;
#X connect 26 0 25 0;
#X connect 27 0 24 0;
#X connect 28 0 23 0;
#X connect 28 0 23 1;
